<svg width="30" height="17" viewBox="0 0 30 17" fill="none" xmlns="http://www.w3.org/2000/svg">
<g clip-path="url(#clip0_2121_5921)">
<path d="M21.7241 0H8.27586C3.70523 0 0 3.70523 0 8.27586C0 12.8465 3.70523 16.5517 8.27586 16.5517H21.7241C26.2948 16.5517 30 12.8465 30 8.27586C30 3.70523 26.2948 0 21.7241 0Z" fill="#1BE3AD"/>
<path d="M21.7241 0.258606H8.27579C3.84799 0.258606 0.258545 3.84805 0.258545 8.27585C0.258545 12.7036 3.84799 16.2931 8.27579 16.2931H21.7241C26.1519 16.2931 29.7413 12.7036 29.7413 8.27585C29.7413 3.84805 26.1519 0.258606 21.7241 0.258606Z" stroke="white" stroke-opacity="0.06"/>
<g filter="url(#filter0_d_2121_5921)">
<path d="M21.7241 15C25.4378 15 28.4483 11.9895 28.4483 8.27587C28.4483 4.56223 25.4378 1.55173 21.7241 1.55173C18.0105 1.55173 15 4.56223 15 8.27587C15 11.9895 18.0105 15 21.7241 15Z" fill="#010818"/>
<path d="M21.7241 14.7414C25.2949 14.7414 28.1896 11.8467 28.1896 8.27585C28.1896 4.70504 25.2949 1.81033 21.7241 1.81033C18.1533 1.81033 15.2585 4.70504 15.2585 8.27585C15.2585 11.8467 18.1533 14.7414 21.7241 14.7414Z" stroke="#5C6D96" stroke-opacity="0.5"/>
</g>
</g>
<defs>
<filter id="filter0_d_2121_5921" x="13.7585" y="1.31033" width="15.9312" height="15.931" filterUnits="userSpaceOnUse" color-interpolation-filters="sRGB">
<feFlood flood-opacity="0" result="BackgroundImageFix"/>
<feColorMatrix in="SourceAlpha" type="matrix" values="0 0 0 0 0 0 0 0 0 0 0 0 0 0 0 0 0 0 127 0" result="hardAlpha"/>
<feOffset dy="1"/>
<feGaussianBlur stdDeviation="0.5"/>
<feComposite in2="hardAlpha" operator="out"/>
<feColorMatrix type="matrix" values="0 0 0 0 0 0 0 0 0 0 0 0 0 0 0 0 0 0 0.35 0"/>
<feBlend mode="normal" in2="BackgroundImageFix" result="effect1_dropShadow_2121_5921"/>
<feBlend mode="normal" in="SourceGraphic" in2="effect1_dropShadow_2121_5921" result="shape"/>
</filter>
<clipPath id="clip0_2121_5921">
<rect width="30" height="16.5517" fill="white"/>
</clipPath>
</defs>
</svg>
