<svg width="96" height="34" viewBox="0 0 96 34" fill="none" xmlns="http://www.w3.org/2000/svg">
<rect width="96" height="32" rx="16" fill="#010818"/>
<rect x="0.5" y="0.5" width="95" height="31" rx="15.5" stroke="#5C6D96" stroke-opacity="0.5"/>
<g filter="url(#filter0_di_544_4124)">
<circle cx="16" cy="16" r="16" fill="#E93349"/>
<circle cx="16" cy="16" r="15.5" stroke="#5C6D96" stroke-opacity="0.5"/>
</g>
<path fill-rule="evenodd" clip-rule="evenodd" d="M18.6074 19.668C17.8718 20.1919 16.9719 20.5 16 20.5C13.5147 20.5 11.5 18.4853 11.5 16C11.5 15.0281 11.8081 14.1282 12.332 13.3926L18.6074 19.668ZM19.6681 18.6074L13.3926 12.3319C14.1282 11.8081 15.0281 11.5 16 11.5C18.4853 11.5 20.5 13.5147 20.5 16C20.5 16.9719 20.1919 17.8718 19.6681 18.6074ZM22 16C22 19.3137 19.3137 22 16 22C12.6863 22 10 19.3137 10 16C10 12.6863 12.6863 10 16 10C19.3137 10 22 12.6863 22 16Z" fill="black"/>
<g opacity="0.6">
<path fill-rule="evenodd" clip-rule="evenodd" d="M53.0303 12.4697C53.3232 12.7626 53.3232 13.2374 53.0303 13.5303L46.5 20.0607L42.9697 16.5303C42.6768 16.2374 42.6768 15.7626 42.9697 15.4697C43.2626 15.1768 43.7374 15.1768 44.0303 15.4697L46.5 17.9393L51.9697 12.4697C52.2626 12.1768 52.7374 12.1768 53.0303 12.4697Z" fill="#E8EFFF"/>
</g>
<g opacity="0.6">
<path fill-rule="evenodd" clip-rule="evenodd" d="M80.0082 20.499C80.0039 20.4999 80.0016 20.5 80 20.5C79.9984 20.5 79.9961 20.4999 79.9918 20.499C79.9874 20.4981 79.9782 20.4958 79.9635 20.4899C79.9339 20.4777 79.8784 20.4487 79.801 20.3833C79.6393 20.2465 79.4293 19.9897 79.2203 19.5718C78.8749 18.881 78.6088 17.9009 78.5265 16.75H81.4735C81.3912 17.9009 81.1251 18.881 80.7797 19.5718C80.5707 19.9897 80.3607 20.2465 80.199 20.3833C80.1216 20.4487 80.0661 20.4777 80.0365 20.4899C80.0218 20.4958 80.0126 20.4981 80.0082 20.499ZM81.4735 15.25H78.5265C78.6088 14.0991 78.8749 13.119 79.2203 12.4282C79.4293 12.0103 79.6393 11.7535 79.801 11.6167C79.8784 11.5513 79.9339 11.5223 79.9635 11.5101C79.9782 11.5042 79.9874 11.5019 79.9918 11.501C79.9961 11.5001 79.9984 11.5 80 11.5C80.0016 11.5 80.0039 11.5001 80.0082 11.501C80.0126 11.5019 80.0218 11.5042 80.0365 11.5101C80.0661 11.5223 80.1216 11.5513 80.199 11.6167C80.3607 11.7535 80.5707 12.0103 80.7797 12.4282C81.1251 13.119 81.3912 14.0991 81.4735 15.25ZM82.9768 16.75C82.903 17.9327 82.6572 19.0085 82.2909 19.874C83.4084 19.2118 84.2147 18.0798 84.4378 16.75H82.9768ZM84.4378 15.25H82.9768C82.903 14.0673 82.6572 12.9915 82.2909 12.126C83.4084 12.7882 84.2147 13.9202 84.4378 15.25ZM77.0232 15.25C77.097 14.0673 77.3428 12.9915 77.7091 12.126C76.5916 12.7882 75.7853 13.9202 75.5622 15.25H77.0232ZM75.5622 16.75C75.7853 18.0798 76.5916 19.2118 77.7091 19.874C77.3428 19.0085 77.097 17.9327 77.0232 16.75H75.5622ZM86 16C86 12.6863 83.3137 10 80 10C76.6863 10 74 12.6863 74 16C74 19.3137 76.6863 22 80 22C83.3137 22 86 19.3137 86 16Z" fill="#E8EFFF"/>
</g>
<defs>
<filter id="filter0_di_544_4124" x="-1" y="0" width="34" height="34" filterUnits="userSpaceOnUse" color-interpolation-filters="sRGB">
<feFlood flood-opacity="0" result="BackgroundImageFix"/>
<feColorMatrix in="SourceAlpha" type="matrix" values="0 0 0 0 0 0 0 0 0 0 0 0 0 0 0 0 0 0 127 0" result="hardAlpha"/>
<feOffset dy="1"/>
<feGaussianBlur stdDeviation="0.5"/>
<feComposite in2="hardAlpha" operator="out"/>
<feColorMatrix type="matrix" values="0 0 0 0 0 0 0 0 0 0 0 0 0 0 0 0 0 0 0.35 0"/>
<feBlend mode="normal" in2="BackgroundImageFix" result="effect1_dropShadow_544_4124"/>
<feBlend mode="normal" in="SourceGraphic" in2="effect1_dropShadow_544_4124" result="shape"/>
<feColorMatrix in="SourceAlpha" type="matrix" values="0 0 0 0 0 0 0 0 0 0 0 0 0 0 0 0 0 0 127 0" result="hardAlpha"/>
<feOffset dy="1"/>
<feComposite in2="hardAlpha" operator="arithmetic" k2="-1" k3="1"/>
<feColorMatrix type="matrix" values="0 0 0 0 1 0 0 0 0 1 0 0 0 0 1 0 0 0 0.3 0"/>
<feBlend mode="normal" in2="shape" result="effect2_innerShadow_544_4124"/>
</filter>
</defs>
</svg>
