<svg width="96" height="34" viewBox="0 0 96 34" fill="none" xmlns="http://www.w3.org/2000/svg">
<rect width="96" height="32" rx="16" fill="#010818"/>
<rect x="0.5" y="0.5" width="95" height="31" rx="15.5" stroke="#5C6D96" stroke-opacity="0.5"/>
<g filter="url(#filter0_di_1917_4051)">
<circle cx="80" cy="16" r="16" fill="#1BE3AD"/>
<circle cx="80" cy="16" r="15.5" stroke="#5C6D96" stroke-opacity="0.5"/>
</g>
<g opacity="0.6">
<path fill-rule="evenodd" clip-rule="evenodd" d="M18.6074 19.668C17.8718 20.1919 16.9719 20.5 16 20.5C13.5147 20.5 11.5 18.4853 11.5 16C11.5 15.0281 11.8081 14.1282 12.332 13.3926L18.6074 19.668ZM19.6681 18.6074L13.3926 12.3319C14.1282 11.8081 15.0281 11.5 16 11.5C18.4853 11.5 20.5 13.5147 20.5 16C20.5 16.9719 20.1919 17.8718 19.6681 18.6074ZM22 16C22 19.3137 19.3137 22 16 22C12.6863 22 10 19.3137 10 16C10 12.6863 12.6863 10 16 10C19.3137 10 22 12.6863 22 16Z" fill="#E8EFFF"/>
</g>
<g opacity="0.6">
<path fill-rule="evenodd" clip-rule="evenodd" d="M53.0303 12.4697C53.3232 12.7626 53.3232 13.2374 53.0303 13.5303L46.5 20.0607L42.9697 16.5303C42.6768 16.2374 42.6768 15.7626 42.9697 15.4697C43.2626 15.1768 43.7374 15.1768 44.0303 15.4697L46.5 17.9393L51.9697 12.4697C52.2626 12.1768 52.7374 12.1768 53.0303 12.4697Z" fill="#E8EFFF"/>
</g>
<g clip-path="url(#clip0_1917_4051)">
<path d="M76 22C79.3137 22 82 19.3137 82 16C82 12.6863 79.3137 10 76 10C72.6863 10 70 12.6863 70 16C70 19.3137 72.6863 22 76 22Z" fill="#F2F2F2"/>
<path d="M75.7388 15.9999H81.9996C81.9996 15.4584 81.9274 14.9337 81.7929 14.4347H75.7388V15.9999Z" fill="#C61C31"/>
<path d="M75.7388 12.8695H81.119C80.7517 12.2702 80.2821 11.7404 79.7345 11.3043H75.7388V12.8695Z" fill="#C61C31"/>
<path d="M76 22C77.4121 22 78.71 21.512 79.7349 20.6957H72.2651C73.2901 21.512 74.588 22 76 22Z" fill="#C61C31"/>
<path d="M70.8805 19.1304H81.1192C81.4141 18.6493 81.6428 18.1233 81.7932 17.5652H70.2065C70.3569 18.1233 70.5856 18.6493 70.8805 19.1304Z" fill="#C61C31"/>
<path d="M72.7793 10.937H73.3261L72.8175 11.3065L73.0118 11.9043L72.5032 11.5349L71.9946 11.9043L72.1624 11.3879C71.7146 11.7609 71.3222 12.1979 70.9987 12.6848H71.1739L70.8502 12.92C70.7997 13.0041 70.7514 13.0896 70.705 13.1764L70.8596 13.6522L70.5712 13.4426C70.4995 13.5945 70.4339 13.7498 70.375 13.9084L70.5453 14.4326H71.1739L70.6653 14.8021L70.8596 15.4L70.351 15.0305L70.0464 15.2519C70.0159 15.497 70 15.7466 70 16H76C76 12.6863 76 12.2957 76 10C74.8147 10 73.7098 10.3438 72.7793 10.937ZM73.0118 15.4L72.5032 15.0305L71.9946 15.4L72.1889 14.8021L71.6803 14.4326H72.3089L72.5032 13.8348L72.6974 14.4326H73.3261L72.8175 14.8021L73.0118 15.4ZM72.8175 13.0543L73.0118 13.6522L72.5032 13.2827L71.9946 13.6522L72.1889 13.0543L71.6803 12.6848H72.3089L72.5032 12.0869L72.6974 12.6848H73.3261L72.8175 13.0543ZM75.1639 15.4L74.6554 15.0305L74.1468 15.4L74.3411 14.8021L73.8325 14.4326H74.4611L74.6554 13.8348L74.8496 14.4326H75.4783L74.9697 14.8021L75.1639 15.4ZM74.9697 13.0543L75.1639 13.6522L74.6554 13.2827L74.1468 13.6522L74.3411 13.0543L73.8325 12.6848H74.4611L74.6554 12.0869L74.8496 12.6848H75.4783L74.9697 13.0543ZM74.9697 11.3065L75.1639 11.9043L74.6554 11.5349L74.1468 11.9043L74.3411 11.3065L73.8325 10.937H74.4611L74.6554 10.3391L74.8496 10.937H75.4783L74.9697 11.3065Z" fill="#4B4A9B"/>
</g>
<path fill-rule="evenodd" clip-rule="evenodd" d="M84.6464 12.6464C84.8417 12.4512 85.1583 12.4512 85.3536 12.6464L88.7071 16L85.3536 19.3536C85.1583 19.5488 84.8417 19.5488 84.6464 19.3536C84.4512 19.1583 84.4512 18.8417 84.6464 18.6464L87.2929 16L84.6464 13.3536C84.4512 13.1583 84.4512 12.8417 84.6464 12.6464Z" fill="black"/>
<defs>
<filter id="filter0_di_1917_4051" x="63" y="0" width="34" height="34" filterUnits="userSpaceOnUse" color-interpolation-filters="sRGB">
<feFlood flood-opacity="0" result="BackgroundImageFix"/>
<feColorMatrix in="SourceAlpha" type="matrix" values="0 0 0 0 0 0 0 0 0 0 0 0 0 0 0 0 0 0 127 0" result="hardAlpha"/>
<feOffset dy="1"/>
<feGaussianBlur stdDeviation="0.5"/>
<feComposite in2="hardAlpha" operator="out"/>
<feColorMatrix type="matrix" values="0 0 0 0 0 0 0 0 0 0 0 0 0 0 0 0 0 0 0.35 0"/>
<feBlend mode="normal" in2="BackgroundImageFix" result="effect1_dropShadow_1917_4051"/>
<feBlend mode="normal" in="SourceGraphic" in2="effect1_dropShadow_1917_4051" result="shape"/>
<feColorMatrix in="SourceAlpha" type="matrix" values="0 0 0 0 0 0 0 0 0 0 0 0 0 0 0 0 0 0 127 0" result="hardAlpha"/>
<feOffset dy="1"/>
<feComposite in2="hardAlpha" operator="arithmetic" k2="-1" k3="1"/>
<feColorMatrix type="matrix" values="0 0 0 0 1 0 0 0 0 1 0 0 0 0 1 0 0 0 0.3 0"/>
<feBlend mode="normal" in2="shape" result="effect2_innerShadow_1917_4051"/>
</filter>
<clipPath id="clip0_1917_4051">
<rect width="12" height="12" fill="white" transform="translate(70 10)"/>
</clipPath>
</defs>
</svg>
